<?xml version="1.0" encoding="UTF-8" standalone="no"?>
<!DOCTYPE svg PUBLIC "-//W3C//DTD SVG 1.1//EN" "http://www.w3.org/Graphics/SVG/1.1/DTD/svg11.dtd">
<svg version="1.1" xmlns="http://www.w3.org/2000/svg" xmlns:xlink="http://www.w3.org/1999/xlink" preserveAspectRatio="xMidYMid meet" viewBox="0 0 640 640" width="640" height="640"><defs><path d="M94.34 198.99L22.32 286.26L155.12 361.38L284.35 327.64L462.67 366.62L558.61 286.26L601.31 203.51L516.05 124.44L373.55 104.57L291.44 160.36L161.88 101.36L49.01 166.06L94.34 198.99Z" id="b5OwcWEsq"></path><path d="M302.82 152.71C300.11 152.11 294.68 150.9 286.54 149.1L159.95 83.99L47.82 166.28" id="bdVeoMzb6"></path><path d="M556.01 289.26C559.16 283.35 564.25 271.55 571.28 253.85L588.56 202.04L509.84 132.96L370.64 105.69" id="dcO8qrpHa"></path><path d="M286.54 314.57L468.3 361.6L286.54 295.59L146.38 357.98L286.54 314.57Z" id="a19bRojVxn"></path></defs><g><g><g><g><filter id="shadow3351720" x="-14.68" y="64.36" width="652.99" height="343.26" filterUnits="userSpaceOnUse" primitiveUnits="userSpaceOnUse"><feFlood></feFlood><feComposite in2="SourceAlpha" operator="in"></feComposite><feGaussianBlur stdDeviation="3"></feGaussianBlur><feOffset dx="0" dy="4" result="afterOffset"></feOffset><feFlood flood-color="#0033ff" flood-opacity="0.5"></feFlood><feComposite in2="afterOffset" operator="in"></feComposite><feMorphology operator="dilate" radius="10"></feMorphology><feComposite in2="SourceAlpha" operator="out"></feComposite></filter><path d="M94.34 198.99L22.32 286.26L155.12 361.38L284.35 327.64L462.67 366.62L558.61 286.26L601.31 203.51L516.05 124.44L373.55 104.57L291.44 160.36L161.88 101.36L49.01 166.06L94.34 198.99Z" id="d2MpZCxAA3" fill="white" fill-opacity="1" filter="url(#shadow3351720)"></path></g><use xlink:href="#b5OwcWEsq" opacity="1" fill="#441340" fill-opacity="0"></use><g><use xlink:href="#b5OwcWEsq" opacity="1" fill-opacity="0" stroke="#0027ed" stroke-width="15" stroke-opacity="1"></use></g></g><g><g><use xlink:href="#bdVeoMzb6" opacity="1" fill-opacity="0" stroke="#0027ed" stroke-width="17" stroke-opacity="1"></use></g></g><g><g><use xlink:href="#dcO8qrpHa" opacity="1" fill-opacity="0" stroke="#0027ed" stroke-width="16" stroke-opacity="1"></use></g></g><g><g><use xlink:href="#a19bRojVxn" opacity="1" fill-opacity="0" stroke="#0027ed" stroke-width="20" stroke-opacity="1"></use></g></g></g></g></svg>